<?xml version="1.0" encoding="utf-8"?>
<!-- Generator: Adobe Illustrator 23.1.0, SVG Export Plug-In . SVG Version: 6.00 Build 0)  -->
<svg version="1.1" id="Capa_1" xmlns="http://www.w3.org/2000/svg" xmlns:xlink="http://www.w3.org/1999/xlink" x="0px" y="0px"
	 viewBox="0 0 512 512" style="enable-background:new 0 0 512 512;" xml:space="preserve">
<style type="text/css">
	.st0{fill:#64FFDA;}
</style>
<path class="st0" d="M8.5,119.5l85.3-7.7c0,45.2-1.6,7.7,8.5,162.1c0.2,3.5,2.7,6.6,6.1,7.6l83.2,24.9l169.1,177.3
	c2.9,2.9,7.4,3.4,10.8,1.2c3.4-2.2,4.8-6.6,3.2-10.4l-67.6-159.8l9.5-53.2l22.6-17.1L504.7,212c3.3-0.6,5.9-3.2,6.6-6.4
	c0.8-3.3-0.4-6.7-3.1-8.7l-52.1-40.2l52.3-38.9c2.8-2,4.2-5.4,3.4-8.8c-0.7-3.3-3.4-5.9-6.8-6.6L343.1,68.3
	c-3.2-0.6,6.8-3-132.1,36.7c-1.3-1.3,7.3,5.3-103.5-77.8c-3.1-2.4-7.4-2.4-10.5,0L3.2,103.9c-3.1,2.2-4.5,6.2-3.2,9.8
	C1.2,117.4,4.7,119.7,8.5,119.5z M119.5,266.6l-6.2-87.4l64.1,105L119.5,266.6z M341.3,438.3L212.1,302.8l64.5-19.4
	C295.2,330.1,282.1,298.7,341.3,438.3z M483.7,199.3L371,220.9l71.4-53.6L483.7,199.3z M348.2,87l135.1,28.4L321.1,236.8L348.2,87z
	 M330.5,88.7l-35,196.3l-6-14.9c-1.4-4.3-6-6.8-10.4-5.5l-79,23.7l-84.6-138.1L330.5,88.7z M110.9,51.2l75.7,56.7l-75.7,25.6V51.2z
	 M93.9,52.1v42.7l-58.4,5.3L93.9,52.1z"/>
</svg>
