<?xml version="1.0" encoding="utf-8"?>
<!-- Generator: Adobe Illustrator 23.1.0, SVG Export Plug-In . SVG Version: 6.00 Build 0)  -->
<svg version="1.1" xmlns="http://www.w3.org/2000/svg" xmlns:xlink="http://www.w3.org/1999/xlink" x="0px" y="0px"
	 viewBox="0 0 512 512" style="enable-background:new 0 0 512 512;" xml:space="preserve">
<style type="text/css">
	.st0{fill:#282828;}
</style>
<g id="Capa_2">
</g>
<g id="Capa_1">
	<polygon class="st0" points="348.2,87 321.1,236.8 483.2,115.4 	"/>
	<path class="st0" d="M115.5,150.2l84.6,138.1l79-23.7c4.4-1.2,9,1.2,10.4,5.5l6,14.9l35-196.3L115.5,150.2z"/>
	<polygon class="st0" points="442.5,167.3 371,220.9 483.7,199.3 	"/>
	<polygon class="st0" points="110.9,51.2 110.9,133.5 186.6,107.9 	"/>
	<polygon class="st0" points="93.9,52.1 35.5,100.1 93.9,94.8 	"/>
	<path class="st0" d="M212.1,302.8l129.3,135.4c-59.2-139.6-46.2-108.2-64.8-154.8L212.1,302.8z"/>
	<polygon class="st0" points="119.5,266.6 177.3,284.2 113.2,179.2 	"/>
</g>
</svg>
