<?xml version="1.0" encoding="utf-8"?>
<!-- Generator: Adobe Illustrator 23.1.0, SVG Export Plug-In . SVG Version: 6.00 Build 0)  -->
<svg version="1.1" id="Capa_1" xmlns="http://www.w3.org/2000/svg" xmlns:xlink="http://www.w3.org/1999/xlink" x="0px" y="0px"
	 viewBox="0 0 512 512" style="enable-background:new 0 0 512 512;" xml:space="preserve">
<style type="text/css">
	.st0{fill:#FF5252;}
</style>
<path class="st0" d="M505.6,82.7L438.5,7.1c-1.7-1.6-3.9-2.6-6.3-2.9H323.1c-2.4,0-4.7,1-6.3,2.9l-60.9,68.4L195.1,7.1
	c-1.6-1.8-3.9-2.9-6.3-2.9C76.6,4.3,87.4,3.2,82.1,6.7L6.6,82.2c-1.6,1.6-2.4,3.7-2.4,6v109.1c1.2,5.8-18.5-20.1,245.3,307.5
	c1.6,2,4,3.1,6.5,3.1c2.5,0,5-1.2,6.5-3.1c264.5-328.5,244-301.2,245.3-307.5C507.7,78.9,508.7,86,505.6,82.7z M326.9,21h93.3
	l-42,112.6L269.8,85.3L326.9,21z M185,21l57.1,64.2l-100.9,44.9L100.2,21H185z M20.9,91.6l63.9-63.8l41,109.1L20.9,184.4V91.6z
	 M264.3,475.6v-228c0-4.6-3.8-8.4-8.4-8.4c-4.6,0-8.4,3.8-8.4,8.4v228L25.9,200.5L255.9,97.4L486,200.5L264.3,475.6z M490.9,184.4
	l-97.8-43.8l42-112l55.8,62.8V184.4z"/>
<path class="st0" d="M243.4,209.8v8.4c0,4.6,3.8,8.4,8.4,8.4s8.4-3.8,8.4-8.4v-8.4c0-4.6-3.8-8.4-8.4-8.4S243.4,205.2,243.4,209.8z"
	/>
</svg>
